<svg width="24" height="24" viewBox="0 0 24 24" fill="none" xmlns="http://www.w3.org/2000/svg">
<g opacity="0.95">
<path fill-rule="evenodd" clip-rule="evenodd" d="M5.79746 3.17241C5.65473 3.51125 5.5315 3.97114 5.35384 4.6342L2.75123 14.3473C2.46133 15.4292 2.31637 15.9702 2.41621 16.4398C2.50402 16.853 2.72037 17.2277 3.03424 17.5103C3.39106 17.8316 3.93202 17.9765 5.01394 18.2664L5.01396 18.2664L5.01398 18.2664L5.79746 18.4764V3.17241ZM9.8481 19.5617L14.727 20.869L14.727 20.869L14.7271 20.8691C15.809 21.1589 16.3499 21.3039 16.8196 21.2041C16.9074 21.1854 16.9935 21.1609 17.0774 21.1309L12.3214 13.6006L9.8481 16.1722V19.5617ZM15.1266 10.6838L19.0949 16.9318L21.2488 8.89324C21.5387 7.8113 21.6837 7.27033 21.5838 6.80067C21.496 6.38754 21.2797 6.01282 20.9658 5.7302C20.7899 5.57181 20.5692 5.45627 20.261 5.34509L15.1266 10.6838ZM9.8481 10.4708L15.7389 4.10397L9.8481 2.52554V10.4708Z" fill="white"/>
</g>
</svg>
