<?xml version="1.0" encoding="UTF-8"?>
<svg version="1.1" xmlns="http://www.w3.org/2000/svg" width="24" height="24">
<path d="M0 0 C2.05078125 0.03255208 4.1015625 0.06510417 6.15234375 0.09765625 C6.48234375 1.08765625 6.81234375 2.07765625 7.15234375 3.09765625 C7.81234375 3.09765625 8.47234375 3.09765625 9.15234375 3.09765625 C9.48234375 2.10765625 9.81234375 1.11765625 10.15234375 0.09765625 C16.3046875 0 16.3046875 0 18.15234375 0.09765625 C19.15234375 1.09765625 19.15234375 1.09765625 19.28515625 4.22265625 C19.28257813 5.50140625 19.28 6.78015625 19.27734375 8.09765625 C19.28121094 10.01578125 19.28121094 10.01578125 19.28515625 11.97265625 C19.15234375 15.09765625 19.15234375 15.09765625 18.15234375 16.09765625 C16.67581711 16.19646422 15.19467139 16.2284487 13.71484375 16.23046875 C12.37292969 16.23240234 12.37292969 16.23240234 11.00390625 16.234375 C10.06289062 16.23050781 9.121875 16.22664063 8.15234375 16.22265625 C6.74082031 16.22845703 6.74082031 16.22845703 5.30078125 16.234375 C4.40617188 16.23308594 3.5115625 16.23179688 2.58984375 16.23046875 C1.76355469 16.22934082 0.93726563 16.22821289 0.0859375 16.22705078 C-1.84765625 16.09765625 -1.84765625 16.09765625 -2.84765625 15.09765625 C-2.94674927 12.7660557 -2.97736129 10.43135683 -2.97265625 8.09765625 C-2.97523437 6.81890625 -2.9778125 5.54015625 -2.98046875 4.22265625 C-2.80731192 0.14837801 -2.80731192 0.14837801 0 0 Z " fill="#F4F4F4" transform="translate(3.84765625,3.90234375)"/>
<path d="M0 0 C2.7427508 -0.47114738 5.19558897 -0.17805784 8 0 C9 1 9 1 9.09765625 4.16015625 C9.08605469 5.44792969 9.07445312 6.73570313 9.0625 8.0625 C9.05347656 9.35285156 9.04445313 10.64320312 9.03515625 11.97265625 C9.02355469 12.97167969 9.01195312 13.97070312 9 15 C8.67 15 8.34 15 8 15 C7.67 10.71 7.34 6.42 7 2 C1.25186988 2.36063799 1.25186988 2.36063799 -1 5 C-1.33 4.34 -1.66 3.68 -2 3 C-1.34 2.01 -0.68 1.02 0 0 Z " fill="#FDFDFD" transform="translate(14,4)"/>
</svg>
