<svg xmlns="http://www.w3.org/2000/svg" xmlns:xlink="http://www.w3.org/1999/xlink" viewBox="0,0,256,256" width="24px" height="24px" fill-rule="nonzero"><g fill="#ffffff" fill-rule="nonzero" stroke="none" stroke-width="1" stroke-linecap="butt" stroke-linejoin="miter" stroke-miterlimit="10" stroke-dasharray="" stroke-dashoffset="0" font-family="none" font-weight="none" font-size="none" text-anchor="none" style="mix-blend-mode: normal"><g transform="scale(4,4)"><path d="M6,13.236v33.009c0,1.084 0.585,2.083 1.529,2.615l11.49,6.463c1.334,0.75 2.981,-0.213 2.981,-1.743v-35.58l-13.106,-6.553c-1.329,-0.665 -2.894,0.302 -2.894,1.789zM42.927,47.674l14.5,-28.999l-13.659,-7.759c-0.978,-0.506 -2.181,-0.127 -2.691,0.848l-8.664,16.541zM36.955,45.055l-10.955,-20.179v13.962zM58,26.472l-11.913,23.827l8.933,5.025c1.333,0.749 2.98,-0.214 2.98,-1.744z"></path></g></g></svg>